# Procedurally generated by scripts/generate_procedural_assets.py
v 0.0300000 0.0000000 0.0000000
v 0.0298555 0.0029405 0.0000000
v 0.0294236 0.0058527 0.0000000
v 0.0287082 0.0087085 0.0000000
v 0.0277164 0.0114805 0.0000000
v 0.0264576 0.0141419 0.0000000
v 0.0249441 0.0166671 0.0000000
v 0.0231903 0.0190318 0.0000000
v 0.0212132 0.0212132 0.0000000
v 0.0190318 0.0231903 0.0000000
v 0.0166671 0.0249441 0.0000000
v 0.0141419 0.0264576 0.0000000
v 0.0114805 0.0277164 0.0000000
v 0.0087085 0.0287082 0.0000000
v 0.0058527 0.0294236 0.0000000
v 0.0029405 0.0298555 0.0000000
v 0.0000000 0.0300000 0.0000000
v -0.0029405 0.0298555 0.0000000
v -0.0058527 0.0294236 0.0000000
v -0.0087085 0.0287082 0.0000000
v -0.0114805 0.0277164 0.0000000
v -0.0141419 0.0264576 0.0000000
v -0.0166671 0.0249441 0.0000000
v -0.0190318 0.0231903 0.0000000
v -0.0212132 0.0212132 0.0000000
v -0.0231903 0.0190318 0.0000000
v -0.0249441 0.0166671 0.0000000
v -0.0264576 0.0141419 0.0000000
v -0.0277164 0.0114805 0.0000000
v -0.0287082 0.0087085 0.0000000
v -0.0294236 0.0058527 0.0000000
v -0.0298555 0.0029405 0.0000000
v -0.0300000 0.0000000 0.0000000
v -0.0298555 -0.0029405 0.0000000
v -0.0294236 -0.0058527 0.0000000
v -0.0287082 -0.0087085 0.0000000
v -0.0277164 -0.0114805 0.0000000
v -0.0264576 -0.0141419 0.0000000
v -0.0249441 -0.0166671 0.0000000
v -0.0231903 -0.0190318 0.0000000
v -0.0212132 -0.0212132 0.0000000
v -0.0190318 -0.0231903 0.0000000
v -0.0166671 -0.0249441 0.0000000
v -0.0141419 -0.0264576 0.0000000
v -0.0114805 -0.0277164 0.0000000
v -0.0087085 -0.0287082 0.0000000
v -0.0058527 -0.0294236 0.0000000
v -0.0029405 -0.0298555 0.0000000
v -0.0000000 -0.0300000 0.0000000
v 0.0029405 -0.0298555 0.0000000
v 0.0058527 -0.0294236 0.0000000
v 0.0087085 -0.0287082 0.0000000
v 0.0114805 -0.0277164 0.0000000
v 0.0141419 -0.0264576 0.0000000
v 0.0166671 -0.0249441 0.0000000
v 0.0190318 -0.0231903 0.0000000
v 0.0212132 -0.0212132 0.0000000
v 0.0231903 -0.0190318 0.0000000
v 0.0249441 -0.0166671 0.0000000
v 0.0264576 -0.0141419 0.0000000
v 0.0277164 -0.0114805 0.0000000
v 0.0287082 -0.0087085 0.0000000
v 0.0294236 -0.0058527 0.0000000
v 0.0298555 -0.0029405 0.0000000
v 0.0550000 0.0000000 0.0550000
v 0.0547352 0.0053909 0.0550000
v 0.0539432 0.0107300 0.0550000
v 0.0526317 0.0159657 0.0550000
v 0.0508134 0.0210476 0.0550000
v 0.0485057 0.0259268 0.0550000
v 0.0457308 0.0305564 0.0550000
v 0.0425156 0.0348916 0.0550000
v 0.0388909 0.0388909 0.0550000
v 0.0348916 0.0425156 0.0550000
v 0.0305564 0.0457308 0.0550000
v 0.0259268 0.0485057 0.0550000
v 0.0210476 0.0508134 0.0550000
v 0.0159657 0.0526317 0.0550000
v 0.0107300 0.0539432 0.0550000
v 0.0053909 0.0547352 0.0550000
v 0.0000000 0.0550000 0.0550000
v -0.0053909 0.0547352 0.0550000
v -0.0107300 0.0539432 0.0550000
v -0.0159657 0.0526317 0.0550000
v -0.0210476 0.0508134 0.0550000
v -0.0259268 0.0485057 0.0550000
v -0.0305564 0.0457308 0.0550000
v -0.0348916 0.0425156 0.0550000
v -0.0388909 0.0388909 0.0550000
v -0.0425156 0.0348916 0.0550000
v -0.0457308 0.0305564 0.0550000
v -0.0485057 0.0259268 0.0550000
v -0.0508134 0.0210476 0.0550000
v -0.0526317 0.0159657 0.0550000
v -0.0539432 0.0107300 0.0550000
v -0.0547352 0.0053909 0.0550000
v -0.0550000 0.0000000 0.0550000
v -0.0547352 -0.0053909 0.0550000
v -0.0539432 -0.0107300 0.0550000
v -0.0526317 -0.0159657 0.0550000
v -0.0508134 -0.0210476 0.0550000
v -0.0485057 -0.0259268 0.0550000
v -0.0457308 -0.0305564 0.0550000
v -0.0425156 -0.0348916 0.0550000
v -0.0388909 -0.0388909 0.0550000
v -0.0348916 -0.0425156 0.0550000
v -0.0305564 -0.0457308 0.0550000
v -0.0259268 -0.0485057 0.0550000
v -0.0210476 -0.0508134 0.0550000
v -0.0159657 -0.0526317 0.0550000
v -0.0107300 -0.0539432 0.0550000
v -0.0053909 -0.0547352 0.0550000
v -0.0000000 -0.0550000 0.0550000
v 0.0053909 -0.0547352 0.0550000
v 0.0107300 -0.0539432 0.0550000
v 0.0159657 -0.0526317 0.0550000
v 0.0210476 -0.0508134 0.0550000
v 0.0259268 -0.0485057 0.0550000
v 0.0305564 -0.0457308 0.0550000
v 0.0348916 -0.0425156 0.0550000
v 0.0388909 -0.0388909 0.0550000
v 0.0425156 -0.0348916 0.0550000
v 0.0457308 -0.0305564 0.0550000
v 0.0485057 -0.0259268 0.0550000
v 0.0508134 -0.0210476 0.0550000
v 0.0526317 -0.0159657 0.0550000
v 0.0539432 -0.0107300 0.0550000
v 0.0547352 -0.0053909 0.0550000
v 0.0470000 0.0000000 0.0520000
v 0.0467737 0.0046068 0.0520000
v 0.0460969 0.0091692 0.0520000
v 0.0449762 0.0136434 0.0520000
v 0.0434223 0.0179861 0.0520000
v 0.0414503 0.0221556 0.0520000
v 0.0390791 0.0261118 0.0520000
v 0.0363315 0.0298165 0.0520000
v 0.0332340 0.0332340 0.0520000
v 0.0298165 0.0363315 0.0520000
v 0.0261118 0.0390791 0.0520000
v 0.0221556 0.0414503 0.0520000
v 0.0179861 0.0434223 0.0520000
v 0.0136434 0.0449762 0.0520000
v 0.0091692 0.0460969 0.0520000
v 0.0046068 0.0467737 0.0520000
v 0.0000000 0.0470000 0.0520000
v -0.0046068 0.0467737 0.0520000
v -0.0091692 0.0460969 0.0520000
v -0.0136434 0.0449762 0.0520000
v -0.0179861 0.0434223 0.0520000
v -0.0221556 0.0414503 0.0520000
v -0.0261118 0.0390791 0.0520000
v -0.0298165 0.0363315 0.0520000
v -0.0332340 0.0332340 0.0520000
v -0.0363315 0.0298165 0.0520000
v -0.0390791 0.0261118 0.0520000
v -0.0414503 0.0221556 0.0520000
v -0.0434223 0.0179861 0.0520000
v -0.0449762 0.0136434 0.0520000
v -0.0460969 0.0091692 0.0520000
v -0.0467737 0.0046068 0.0520000
v -0.0470000 0.0000000 0.0520000
v -0.0467737 -0.0046068 0.0520000
v -0.0460969 -0.0091692 0.0520000
v -0.0449762 -0.0136434 0.0520000
v -0.0434223 -0.0179861 0.0520000
v -0.0414503 -0.0221556 0.0520000
v -0.0390791 -0.0261118 0.0520000
v -0.0363315 -0.0298165 0.0520000
v -0.0332340 -0.0332340 0.0520000
v -0.0298165 -0.0363315 0.0520000
v -0.0261118 -0.0390791 0.0520000
v -0.0221556 -0.0414503 0.0520000
v -0.0179861 -0.0434223 0.0520000
v -0.0136434 -0.0449762 0.0520000
v -0.0091692 -0.0460969 0.0520000
v -0.0046068 -0.0467737 0.0520000
v -0.0000000 -0.0470000 0.0520000
v 0.0046068 -0.0467737 0.0520000
v 0.0091692 -0.0460969 0.0520000
v 0.0136434 -0.0449762 0.0520000
v 0.0179861 -0.0434223 0.0520000
v 0.0221556 -0.0414503 0.0520000
v 0.0261118 -0.0390791 0.0520000
v 0.0298165 -0.0363315 0.0520000
v 0.0332340 -0.0332340 0.0520000
v 0.0363315 -0.0298165 0.0520000
v 0.0390791 -0.0261118 0.0520000
v 0.0414503 -0.0221556 0.0520000
v 0.0434223 -0.0179861 0.0520000
v 0.0449762 -0.0136434 0.0520000
v 0.0460969 -0.0091692 0.0520000
v 0.0467737 -0.0046068 0.0520000
v 0.0220000 0.0000000 0.0120000
v 0.0218941 0.0021564 0.0120000
v 0.0215773 0.0042920 0.0120000
v 0.0210527 0.0063863 0.0120000
v 0.0203253 0.0084190 0.0120000
v 0.0194023 0.0103707 0.0120000
v 0.0182923 0.0122225 0.0120000
v 0.0170062 0.0139567 0.0120000
v 0.0155563 0.0155563 0.0120000
v 0.0139567 0.0170062 0.0120000
v 0.0122225 0.0182923 0.0120000
v 0.0103707 0.0194023 0.0120000
v 0.0084190 0.0203253 0.0120000
v 0.0063863 0.0210527 0.0120000
v 0.0042920 0.0215773 0.0120000
v 0.0021564 0.0218941 0.0120000
v 0.0000000 0.0220000 0.0120000
v -0.0021564 0.0218941 0.0120000
v -0.0042920 0.0215773 0.0120000
v -0.0063863 0.0210527 0.0120000
v -0.0084190 0.0203253 0.0120000
v -0.0103707 0.0194023 0.0120000
v -0.0122225 0.0182923 0.0120000
v -0.0139567 0.0170062 0.0120000
v -0.0155563 0.0155563 0.0120000
v -0.0170062 0.0139567 0.0120000
v -0.0182923 0.0122225 0.0120000
v -0.0194023 0.0103707 0.0120000
v -0.0203253 0.0084190 0.0120000
v -0.0210527 0.0063863 0.0120000
v -0.0215773 0.0042920 0.0120000
v -0.0218941 0.0021564 0.0120000
v -0.0220000 0.0000000 0.0120000
v -0.0218941 -0.0021564 0.0120000
v -0.0215773 -0.0042920 0.0120000
v -0.0210527 -0.0063863 0.0120000
v -0.0203253 -0.0084190 0.0120000
v -0.0194023 -0.0103707 0.0120000
v -0.0182923 -0.0122225 0.0120000
v -0.0170062 -0.0139567 0.0120000
v -0.0155563 -0.0155563 0.0120000
v -0.0139567 -0.0170062 0.0120000
v -0.0122225 -0.0182923 0.0120000
v -0.0103707 -0.0194023 0.0120000
v -0.0084190 -0.0203253 0.0120000
v -0.0063863 -0.0210527 0.0120000
v -0.0042920 -0.0215773 0.0120000
v -0.0021564 -0.0218941 0.0120000
v -0.0000000 -0.0220000 0.0120000
v 0.0021564 -0.0218941 0.0120000
v 0.0042920 -0.0215773 0.0120000
v 0.0063863 -0.0210527 0.0120000
v 0.0084190 -0.0203253 0.0120000
v 0.0103707 -0.0194023 0.0120000
v 0.0122225 -0.0182923 0.0120000
v 0.0139567 -0.0170062 0.0120000
v 0.0155563 -0.0155563 0.0120000
v 0.0170062 -0.0139567 0.0120000
v 0.0182923 -0.0122225 0.0120000
v 0.0194023 -0.0103707 0.0120000
v 0.0203253 -0.0084190 0.0120000
v 0.0210527 -0.0063863 0.0120000
v 0.0215773 -0.0042920 0.0120000
v 0.0218941 -0.0021564 0.0120000
v 0.0000000 0.0000000 0.0000000
v 0.0000000 0.0000000 0.0090000
f 1 2 66
f 1 66 65
f 2 3 67
f 2 67 66
f 3 4 68
f 3 68 67
f 4 5 69
f 4 69 68
f 5 6 70
f 5 70 69
f 6 7 71
f 6 71 70
f 7 8 72
f 7 72 71
f 8 9 73
f 8 73 72
f 9 10 74
f 9 74 73
f 10 11 75
f 10 75 74
f 11 12 76
f 11 76 75
f 12 13 77
f 12 77 76
f 13 14 78
f 13 78 77
f 14 15 79
f 14 79 78
f 15 16 80
f 15 80 79
f 16 17 81
f 16 81 80
f 17 18 82
f 17 82 81
f 18 19 83
f 18 83 82
f 19 20 84
f 19 84 83
f 20 21 85
f 20 85 84
f 21 22 86
f 21 86 85
f 22 23 87
f 22 87 86
f 23 24 88
f 23 88 87
f 24 25 89
f 24 89 88
f 25 26 90
f 25 90 89
f 26 27 91
f 26 91 90
f 27 28 92
f 27 92 91
f 28 29 93
f 28 93 92
f 29 30 94
f 29 94 93
f 30 31 95
f 30 95 94
f 31 32 96
f 31 96 95
f 32 33 97
f 32 97 96
f 33 34 98
f 33 98 97
f 34 35 99
f 34 99 98
f 35 36 100
f 35 100 99
f 36 37 101
f 36 101 100
f 37 38 102
f 37 102 101
f 38 39 103
f 38 103 102
f 39 40 104
f 39 104 103
f 40 41 105
f 40 105 104
f 41 42 106
f 41 106 105
f 42 43 107
f 42 107 106
f 43 44 108
f 43 108 107
f 44 45 109
f 44 109 108
f 45 46 110
f 45 110 109
f 46 47 111
f 46 111 110
f 47 48 112
f 47 112 111
f 48 49 113
f 48 113 112
f 49 50 114
f 49 114 113
f 50 51 115
f 50 115 114
f 51 52 116
f 51 116 115
f 52 53 117
f 52 117 116
f 53 54 118
f 53 118 117
f 54 55 119
f 54 119 118
f 55 56 120
f 55 120 119
f 56 57 121
f 56 121 120
f 57 58 122
f 57 122 121
f 58 59 123
f 58 123 122
f 59 60 124
f 59 124 123
f 60 61 125
f 60 125 124
f 61 62 126
f 61 126 125
f 62 63 127
f 62 127 126
f 63 64 128
f 63 128 127
f 64 1 65
f 64 65 128
f 65 66 130
f 65 130 129
f 66 67 131
f 66 131 130
f 67 68 132
f 67 132 131
f 68 69 133
f 68 133 132
f 69 70 134
f 69 134 133
f 70 71 135
f 70 135 134
f 71 72 136
f 71 136 135
f 72 73 137
f 72 137 136
f 73 74 138
f 73 138 137
f 74 75 139
f 74 139 138
f 75 76 140
f 75 140 139
f 76 77 141
f 76 141 140
f 77 78 142
f 77 142 141
f 78 79 143
f 78 143 142
f 79 80 144
f 79 144 143
f 80 81 145
f 80 145 144
f 81 82 146
f 81 146 145
f 82 83 147
f 82 147 146
f 83 84 148
f 83 148 147
f 84 85 149
f 84 149 148
f 85 86 150
f 85 150 149
f 86 87 151
f 86 151 150
f 87 88 152
f 87 152 151
f 88 89 153
f 88 153 152
f 89 90 154
f 89 154 153
f 90 91 155
f 90 155 154
f 91 92 156
f 91 156 155
f 92 93 157
f 92 157 156
f 93 94 158
f 93 158 157
f 94 95 159
f 94 159 158
f 95 96 160
f 95 160 159
f 96 97 161
f 96 161 160
f 97 98 162
f 97 162 161
f 98 99 163
f 98 163 162
f 99 100 164
f 99 164 163
f 100 101 165
f 100 165 164
f 101 102 166
f 101 166 165
f 102 103 167
f 102 167 166
f 103 104 168
f 103 168 167
f 104 105 169
f 104 169 168
f 105 106 170
f 105 170 169
f 106 107 171
f 106 171 170
f 107 108 172
f 107 172 171
f 108 109 173
f 108 173 172
f 109 110 174
f 109 174 173
f 110 111 175
f 110 175 174
f 111 112 176
f 111 176 175
f 112 113 177
f 112 177 176
f 113 114 178
f 113 178 177
f 114 115 179
f 114 179 178
f 115 116 180
f 115 180 179
f 116 117 181
f 116 181 180
f 117 118 182
f 117 182 181
f 118 119 183
f 118 183 182
f 119 120 184
f 119 184 183
f 120 121 185
f 120 185 184
f 121 122 186
f 121 186 185
f 122 123 187
f 122 187 186
f 123 124 188
f 123 188 187
f 124 125 189
f 124 189 188
f 125 126 190
f 125 190 189
f 126 127 191
f 126 191 190
f 127 128 192
f 127 192 191
f 128 65 129
f 128 129 192
f 129 194 130
f 129 193 194
f 130 195 131
f 130 194 195
f 131 196 132
f 131 195 196
f 132 197 133
f 132 196 197
f 133 198 134
f 133 197 198
f 134 199 135
f 134 198 199
f 135 200 136
f 135 199 200
f 136 201 137
f 136 200 201
f 137 202 138
f 137 201 202
f 138 203 139
f 138 202 203
f 139 204 140
f 139 203 204
f 140 205 141
f 140 204 205
f 141 206 142
f 141 205 206
f 142 207 143
f 142 206 207
f 143 208 144
f 143 207 208
f 144 209 145
f 144 208 209
f 145 210 146
f 145 209 210
f 146 211 147
f 146 210 211
f 147 212 148
f 147 211 212
f 148 213 149
f 148 212 213
f 149 214 150
f 149 213 214
f 150 215 151
f 150 214 215
f 151 216 152
f 151 215 216
f 152 217 153
f 152 216 217
f 153 218 154
f 153 217 218
f 154 219 155
f 154 218 219
f 155 220 156
f 155 219 220
f 156 221 157
f 156 220 221
f 157 222 158
f 157 221 222
f 158 223 159
f 158 222 223
f 159 224 160
f 159 223 224
f 160 225 161
f 160 224 225
f 161 226 162
f 161 225 226
f 162 227 163
f 162 226 227
f 163 228 164
f 163 227 228
f 164 229 165
f 164 228 229
f 165 230 166
f 165 229 230
f 166 231 167
f 166 230 231
f 167 232 168
f 167 231 232
f 168 233 169
f 168 232 233
f 169 234 170
f 169 233 234
f 170 235 171
f 170 234 235
f 171 236 172
f 171 235 236
f 172 237 173
f 172 236 237
f 173 238 174
f 173 237 238
f 174 239 175
f 174 238 239
f 175 240 176
f 175 239 240
f 176 241 177
f 176 240 241
f 177 242 178
f 177 241 242
f 178 243 179
f 178 242 243
f 179 244 180
f 179 243 244
f 180 245 181
f 180 244 245
f 181 246 182
f 181 245 246
f 182 247 183
f 182 246 247
f 183 248 184
f 183 247 248
f 184 249 185
f 184 248 249
f 185 250 186
f 185 249 250
f 186 251 187
f 186 250 251
f 187 252 188
f 187 251 252
f 188 253 189
f 188 252 253
f 189 254 190
f 189 253 254
f 190 255 191
f 190 254 255
f 191 256 192
f 191 255 256
f 192 193 129
f 192 256 193
f 257 2 1
f 258 193 194
f 257 3 2
f 258 194 195
f 257 4 3
f 258 195 196
f 257 5 4
f 258 196 197
f 257 6 5
f 258 197 198
f 257 7 6
f 258 198 199
f 257 8 7
f 258 199 200
f 257 9 8
f 258 200 201
f 257 10 9
f 258 201 202
f 257 11 10
f 258 202 203
f 257 12 11
f 258 203 204
f 257 13 12
f 258 204 205
f 257 14 13
f 258 205 206
f 257 15 14
f 258 206 207
f 257 16 15
f 258 207 208
f 257 17 16
f 258 208 209
f 257 18 17
f 258 209 210
f 257 19 18
f 258 210 211
f 257 20 19
f 258 211 212
f 257 21 20
f 258 212 213
f 257 22 21
f 258 213 214
f 257 23 22
f 258 214 215
f 257 24 23
f 258 215 216
f 257 25 24
f 258 216 217
f 257 26 25
f 258 217 218
f 257 27 26
f 258 218 219
f 257 28 27
f 258 219 220
f 257 29 28
f 258 220 221
f 257 30 29
f 258 221 222
f 257 31 30
f 258 222 223
f 257 32 31
f 258 223 224
f 257 33 32
f 258 224 225
f 257 34 33
f 258 225 226
f 257 35 34
f 258 226 227
f 257 36 35
f 258 227 228
f 257 37 36
f 258 228 229
f 257 38 37
f 258 229 230
f 257 39 38
f 258 230 231
f 257 40 39
f 258 231 232
f 257 41 40
f 258 232 233
f 257 42 41
f 258 233 234
f 257 43 42
f 258 234 235
f 257 44 43
f 258 235 236
f 257 45 44
f 258 236 237
f 257 46 45
f 258 237 238
f 257 47 46
f 258 238 239
f 257 48 47
f 258 239 240
f 257 49 48
f 258 240 241
f 257 50 49
f 258 241 242
f 257 51 50
f 258 242 243
f 257 52 51
f 258 243 244
f 257 53 52
f 258 244 245
f 257 54 53
f 258 245 246
f 257 55 54
f 258 246 247
f 257 56 55
f 258 247 248
f 257 57 56
f 258 248 249
f 257 58 57
f 258 249 250
f 257 59 58
f 258 250 251
f 257 60 59
f 258 251 252
f 257 61 60
f 258 252 253
f 257 62 61
f 258 253 254
f 257 63 62
f 258 254 255
f 257 64 63
f 258 255 256
f 257 1 64
f 258 256 193
f 66 2 1
f 65 66 1
f 67 3 2
f 66 67 2
f 68 4 3
f 67 68 3
f 69 5 4
f 68 69 4
f 70 6 5
f 69 70 5
f 71 7 6
f 70 71 6
f 72 8 7
f 71 72 7
f 73 9 8
f 72 73 8
f 74 10 9
f 73 74 9
f 75 11 10
f 74 75 10
f 76 12 11
f 75 76 11
f 77 13 12
f 76 77 12
f 78 14 13
f 77 78 13
f 79 15 14
f 78 79 14
f 80 16 15
f 79 80 15
f 81 17 16
f 80 81 16
f 82 18 17
f 81 82 17
f 83 19 18
f 82 83 18
f 84 20 19
f 83 84 19
f 85 21 20
f 84 85 20
f 86 22 21
f 85 86 21
f 87 23 22
f 86 87 22
f 88 24 23
f 87 88 23
f 89 25 24
f 88 89 24
f 90 26 25
f 89 90 25
f 91 27 26
f 90 91 26
f 92 28 27
f 91 92 27
f 93 29 28
f 92 93 28
f 94 30 29
f 93 94 29
f 95 31 30
f 94 95 30
f 96 32 31
f 95 96 31
f 97 33 32
f 96 97 32
f 98 34 33
f 97 98 33
f 99 35 34
f 98 99 34
f 100 36 35
f 99 100 35
f 101 37 36
f 100 101 36
f 102 38 37
f 101 102 37
f 103 39 38
f 102 103 38
f 104 40 39
f 103 104 39
f 105 41 40
f 104 105 40
f 106 42 41
f 105 106 41
f 107 43 42
f 106 107 42
f 108 44 43
f 107 108 43
f 109 45 44
f 108 109 44
f 110 46 45
f 109 110 45
f 111 47 46
f 110 111 46
f 112 48 47
f 111 112 47
f 113 49 48
f 112 113 48
f 114 50 49
f 113 114 49
f 115 51 50
f 114 115 50
f 116 52 51
f 115 116 51
f 117 53 52
f 116 117 52
f 118 54 53
f 117 118 53
f 119 55 54
f 118 119 54
f 120 56 55
f 119 120 55
f 121 57 56
f 120 121 56
f 122 58 57
f 121 122 57
f 123 59 58
f 122 123 58
f 124 60 59
f 123 124 59
f 125 61 60
f 124 125 60
f 126 62 61
f 125 126 61
f 127 63 62
f 126 127 62
f 128 64 63
f 127 128 63
f 65 1 64
f 128 65 64
f 130 66 65
f 129 130 65
f 131 67 66
f 130 131 66
f 132 68 67
f 131 132 67
f 133 69 68
f 132 133 68
f 134 70 69
f 133 134 69
f 135 71 70
f 134 135 70
f 136 72 71
f 135 136 71
f 137 73 72
f 136 137 72
f 138 74 73
f 137 138 73
f 139 75 74
f 138 139 74
f 140 76 75
f 139 140 75
f 141 77 76
f 140 141 76
f 142 78 77
f 141 142 77
f 143 79 78
f 142 143 78
f 144 80 79
f 143 144 79
f 145 81 80
f 144 145 80
f 146 82 81
f 145 146 81
f 147 83 82
f 146 147 82
f 148 84 83
f 147 148 83
f 149 85 84
f 148 149 84
f 150 86 85
f 149 150 85
f 151 87 86
f 150 151 86
f 152 88 87
f 151 152 87
f 153 89 88
f 152 153 88
f 154 90 89
f 153 154 89
f 155 91 90
f 154 155 90
f 156 92 91
f 155 156 91
f 157 93 92
f 156 157 92
f 158 94 93
f 157 158 93
f 159 95 94
f 158 159 94
f 160 96 95
f 159 160 95
f 161 97 96
f 160 161 96
f 162 98 97
f 161 162 97
f 163 99 98
f 162 163 98
f 164 100 99
f 163 164 99
f 165 101 100
f 164 165 100
f 166 102 101
f 165 166 101
f 167 103 102
f 166 167 102
f 168 104 103
f 167 168 103
f 169 105 104
f 168 169 104
f 170 106 105
f 169 170 105
f 171 107 106
f 170 171 106
f 172 108 107
f 171 172 107
f 173 109 108
f 172 173 108
f 174 110 109
f 173 174 109
f 175 111 110
f 174 175 110
f 176 112 111
f 175 176 111
f 177 113 112
f 176 177 112
f 178 114 113
f 177 178 113
f 179 115 114
f 178 179 114
f 180 116 115
f 179 180 115
f 181 117 116
f 180 181 116
f 182 118 117
f 181 182 117
f 183 119 118
f 182 183 118
f 184 120 119
f 183 184 119
f 185 121 120
f 184 185 120
f 186 122 121
f 185 186 121
f 187 123 122
f 186 187 122
f 188 124 123
f 187 188 123
f 189 125 124
f 188 189 124
f 190 126 125
f 189 190 125
f 191 127 126
f 190 191 126
f 192 128 127
f 191 192 127
f 129 65 128
f 192 129 128
f 130 194 129
f 194 193 129
f 131 195 130
f 195 194 130
f 132 196 131
f 196 195 131
f 133 197 132
f 197 196 132
f 134 198 133
f 198 197 133
f 135 199 134
f 199 198 134
f 136 200 135
f 200 199 135
f 137 201 136
f 201 200 136
f 138 202 137
f 202 201 137
f 139 203 138
f 203 202 138
f 140 204 139
f 204 203 139
f 141 205 140
f 205 204 140
f 142 206 141
f 206 205 141
f 143 207 142
f 207 206 142
f 144 208 143
f 208 207 143
f 145 209 144
f 209 208 144
f 146 210 145
f 210 209 145
f 147 211 146
f 211 210 146
f 148 212 147
f 212 211 147
f 149 213 148
f 213 212 148
f 150 214 149
f 214 213 149
f 151 215 150
f 215 214 150
f 152 216 151
f 216 215 151
f 153 217 152
f 217 216 152
f 154 218 153
f 218 217 153
f 155 219 154
f 219 218 154
f 156 220 155
f 220 219 155
f 157 221 156
f 221 220 156
f 158 222 157
f 222 221 157
f 159 223 158
f 223 222 158
f 160 224 159
f 224 223 159
f 161 225 160
f 225 224 160
f 162 226 161
f 226 225 161
f 163 227 162
f 227 226 162
f 164 228 163
f 228 227 163
f 165 229 164
f 229 228 164
f 166 230 165
f 230 229 165
f 167 231 166
f 231 230 166
f 168 232 167
f 232 231 167
f 169 233 168
f 233 232 168
f 170 234 169
f 234 233 169
f 171 235 170
f 235 234 170
f 172 236 171
f 236 235 171
f 173 237 172
f 237 236 172
f 174 238 173
f 238 237 173
f 175 239 174
f 239 238 174
f 176 240 175
f 240 239 175
f 177 241 176
f 241 240 176
f 178 242 177
f 242 241 177
f 179 243 178
f 243 242 178
f 180 244 179
f 244 243 179
f 181 245 180
f 245 244 180
f 182 246 181
f 246 245 181
f 183 247 182
f 247 246 182
f 184 248 183
f 248 247 183
f 185 249 184
f 249 248 184
f 186 250 185
f 250 249 185
f 187 251 186
f 251 250 186
f 188 252 187
f 252 251 187
f 189 253 188
f 253 252 188
f 190 254 189
f 254 253 189
f 191 255 190
f 255 254 190
f 192 256 191
f 256 255 191
f 129 193 192
f 193 256 192
f 1 2 257
f 194 193 258
f 2 3 257
f 195 194 258
f 3 4 257
f 196 195 258
f 4 5 257
f 197 196 258
f 5 6 257
f 198 197 258
f 6 7 257
f 199 198 258
f 7 8 257
f 200 199 258
f 8 9 257
f 201 200 258
f 9 10 257
f 202 201 258
f 10 11 257
f 203 202 258
f 11 12 257
f 204 203 258
f 12 13 257
f 205 204 258
f 13 14 257
f 206 205 258
f 14 15 257
f 207 206 258
f 15 16 257
f 208 207 258
f 16 17 257
f 209 208 258
f 17 18 257
f 210 209 258
f 18 19 257
f 211 210 258
f 19 20 257
f 212 211 258
f 20 21 257
f 213 212 258
f 21 22 257
f 214 213 258
f 22 23 257
f 215 214 258
f 23 24 257
f 216 215 258
f 24 25 257
f 217 216 258
f 25 26 257
f 218 217 258
f 26 27 257
f 219 218 258
f 27 28 257
f 220 219 258
f 28 29 257
f 221 220 258
f 29 30 257
f 222 221 258
f 30 31 257
f 223 222 258
f 31 32 257
f 224 223 258
f 32 33 257
f 225 224 258
f 33 34 257
f 226 225 258
f 34 35 257
f 227 226 258
f 35 36 257
f 228 227 258
f 36 37 257
f 229 228 258
f 37 38 257
f 230 229 258
f 38 39 257
f 231 230 258
f 39 40 257
f 232 231 258
f 40 41 257
f 233 232 258
f 41 42 257
f 234 233 258
f 42 43 257
f 235 234 258
f 43 44 257
f 236 235 258
f 44 45 257
f 237 236 258
f 45 46 257
f 238 237 258
f 46 47 257
f 239 238 258
f 47 48 257
f 240 239 258
f 48 49 257
f 241 240 258
f 49 50 257
f 242 241 258
f 50 51 257
f 243 242 258
f 51 52 257
f 244 243 258
f 52 53 257
f 245 244 258
f 53 54 257
f 246 245 258
f 54 55 257
f 247 246 258
f 55 56 257
f 248 247 258
f 56 57 257
f 249 248 258
f 57 58 257
f 250 249 258
f 58 59 257
f 251 250 258
f 59 60 257
f 252 251 258
f 60 61 257
f 253 252 258
f 61 62 257
f 254 253 258
f 62 63 257
f 255 254 258
f 63 64 257
f 256 255 258
f 64 1 257
f 193 256 258
